<svg xmlns="http://www.w3.org/2000/svg" viewBox="0 0 128 128" width="128" height="128" role="img" aria-label="Quote"><title>Quote</title><defs><linearGradient id="bg" x1="0%" y1="0%" x2="92%" y2="100%"><stop offset="0%" stop-color="#FFC24D"/><stop offset="100%" stop-color="#ED8A12"/></linearGradient><filter id="lift" x="-30%" y="-30%" width="160%" height="160%"><feDropShadow dx="0" dy="3" stdDeviation="3.5" flood-color="#7A3D00" flood-opacity="0.30"/></filter></defs><rect width="128" height="128" rx="28" fill="url(#bg)"/><g transform="translate(64,64)" filter="url(#lift)"><path d="M-38,-38 a6,6 0 0 1 6,-6 H16 L32,-32 V36 a6,6 0 0 1 -6,6 H-32 a6,6 0 0 1 -6,-6 Z" fill="#ffffff"/><polygon points="16,-44 16,-32 32,-32" fill="#D9DEE8"/><line x1="-28" y1="-24" x2="20" y2="-24" stroke="#9FB6CC" stroke-width="4.2" stroke-linecap="round"/><line x1="-28" y1="-12" x2="12" y2="-12" stroke="#CBD8E6" stroke-width="4.2" stroke-linecap="round"/><line x1="-28" y1="0" x2="16" y2="0" stroke="#CBD8E6" stroke-width="4.2" stroke-linecap="round"/><circle cx="20" cy="24" r="15" fill="#2FA85A"/><circle cx="20" cy="24" r="8" fill="none" stroke="#fff" stroke-width="2.4"/><circle cx="20" cy="24" r="2.5" fill="#fff"/></g></svg>